<svg width="24" height="24" viewBox="0 0 24 24" fill="none" xmlns="http://www.w3.org/2000/svg">
<path opacity="0.01" d="M24 0H0V24H24V0Z" fill="white" fill-opacity="0.01"/>
<path d="M15.1815 15.1096L13.9422 16.9604C10.822 15.6491 8.34249 13.1633 7.03883 10.0396L8.88054 8.81129C9.36677 8.48806 9.71039 7.99049 9.84047 7.42126C9.97056 6.85202 9.8772 6.25457 9.57966 5.75217L7.84687 2.81866C7.67075 2.5208 7.40633 2.28512 7.09027 2.14431C6.77421 2.00349 6.42217 1.9645 6.08297 2.03276H6.06407C5.3886 2.16513 4.74747 2.43471 4.18034 2.8248C3.6132 3.2149 3.13213 3.71722 2.76687 4.3007C2.40162 4.88418 2.15994 5.5364 2.05681 6.21703C1.95367 6.89765 1.99126 7.5922 2.16725 8.25772C3.05699 11.5044 4.77664 14.4635 7.15698 16.8437C9.53732 19.2239 12.4963 20.9433 15.7428 21.8326C16.4084 22.0087 17.103 22.0464 17.7838 21.9432C18.4645 21.8399 19.1168 21.5981 19.7003 21.2325C20.2838 20.867 20.786 20.3855 21.1759 19.818C21.5658 19.2505 21.8351 18.6089 21.967 17.9331C22.0352 17.5952 21.9971 17.2444 21.8577 16.9291C21.7184 16.6137 21.4848 16.3493 21.189 16.1723L18.2514 14.4204C17.749 14.1193 17.1501 14.023 16.5787 14.1513C16.0072 14.2796 15.507 14.6227 15.1815 15.1096Z" fill="white"/>
</svg>
