<svg width="24" height="24" viewBox="0 0 24 24" fill="none" xmlns="http://www.w3.org/2000/svg">
<path d="M12 0C9.62663 0 7.30655 0.703788 5.33316 2.02236C3.35977 3.34094 1.8217 5.21508 0.913451 7.4078C0.00519943 9.60051 -0.232441 12.0133 0.230582 14.3411C0.693605 16.6689 1.83649 18.807 3.51472 20.4853C5.19295 22.1635 7.33115 23.3064 9.65892 23.7694C11.9867 24.2324 14.3995 23.9948 16.5922 23.0865C18.7849 22.1783 20.6591 20.6402 21.9776 18.6668C23.2962 16.6934 24 14.3734 24 12C23.9964 8.81851 22.731 5.76835 20.4813 3.51869C18.2317 1.26904 15.1815 0.00359958 12 0ZM18.7064 8.8424L11.04 16.4512C10.8233 16.6722 10.5285 16.7993 10.219 16.805C9.90956 16.8107 9.61025 16.6945 9.3856 16.4816L5.3232 12.7816C5.09422 12.5665 4.95703 12.2714 4.94019 11.9577C4.92335 11.644 5.02816 11.3359 5.2328 11.0976C5.33947 10.9829 5.46774 10.8904 5.61025 10.8254C5.75276 10.7604 5.9067 10.7242 6.06324 10.7189C6.21978 10.7135 6.37583 10.7391 6.52245 10.7942C6.66906 10.8493 6.80335 10.9329 6.9176 11.04L10.136 13.9872L16.9928 7.128C17.1054 7.01543 17.239 6.92614 17.3861 6.86521C17.5332 6.80429 17.6908 6.77293 17.85 6.77293C18.0092 6.77293 18.1668 6.80429 18.3139 6.86521C18.461 6.92614 18.5946 7.01543 18.7072 7.128C18.8198 7.24057 18.9091 7.37421 18.97 7.52129C19.0309 7.66836 19.0623 7.826 19.0623 7.9852C19.0623 8.14439 19.0309 8.30203 18.97 8.44911C18.9091 8.59619 18.8198 8.72983 18.7072 8.8424H18.7064Z" fill="#6F757F"/>
</svg>
