<svg width="60" height="60" viewBox="0 0 60 60" fill="none" xmlns="http://www.w3.org/2000/svg">
<rect opacity="0.26" x="1" y="1" width="58" height="58" rx="29" stroke="white" stroke-width="2"/>
<path d="M40.25 31.75C41.0784 31.75 41.75 31.0784 41.75 30.25C41.75 29.4216 41.0784 28.75 40.25 28.75L40.25 31.75ZM18.6893 29.1893C18.1036 29.7751 18.1036 30.7249 18.6893 31.3107L28.2353 40.8566C28.8211 41.4424 29.7708 41.4424 30.3566 40.8566C30.9424 40.2708 30.9424 39.3211 30.3566 38.7353L21.8713 30.25L30.3566 21.7647C30.9424 21.1789 30.9424 20.2292 30.3566 19.6434C29.7708 19.0576 28.8211 19.0576 28.2353 19.6434L18.6893 29.1893ZM40.25 28.75L19.75 28.75L19.75 31.75L40.25 31.75L40.25 28.75Z" fill="white"/>
</svg>
