<svg width="60" height="60" viewBox="0 0 60 60" fill="none" xmlns="http://www.w3.org/2000/svg">
<rect opacity="0.2" x="-1" y="1" width="58" height="58" rx="29" transform="matrix(-1 0 0 1 58 0)" stroke="white" stroke-width="2"/>
<path d="M19.75 31.75C18.9216 31.75 18.25 31.0784 18.25 30.25C18.25 29.4216 18.9216 28.75 19.75 28.75L19.75 31.75ZM41.3107 29.1893C41.8964 29.7751 41.8964 30.7249 41.3107 31.3107L31.7647 40.8566C31.1789 41.4424 30.2292 41.4424 29.6434 40.8566C29.0576 40.2708 29.0576 39.3211 29.6434 38.7353L38.1287 30.25L29.6434 21.7647C29.0576 21.1789 29.0576 20.2292 29.6434 19.6434C30.2292 19.0576 31.1789 19.0576 31.7647 19.6434L41.3107 29.1893ZM19.75 28.75L40.25 28.75L40.25 31.75L19.75 31.75L19.75 28.75Z" fill="white"/>
</svg>
